<svg xmlns="http://www.w3.org/2000/svg" xmlns:xlink="http://www.w3.org/1999/xlink" version="1.1" width="256" height="256" viewBox="0 0 256 256" xml:space="preserve">

<defs>
</defs>
<g style="stroke: none; stroke-width: 0; stroke-dasharray: none; stroke-linecap: butt; stroke-linejoin: miter; stroke-miterlimit: 10; fill: none; fill-rule: nonzero; opacity: 1;" transform="translate(13.6466926070039 13.6466926070039) scale(2.53 2.53)" >
	<path d="M 90 9.17 c 0 -1.28 -0.488 -2.559 -1.465 -3.536 c -1.952 -1.953 -5.118 -1.953 -7.07 0 L 45 42.099 L 8.535 5.634 c -1.953 -1.953 -5.119 -1.953 -7.071 0 c -1.952 1.953 -1.952 5.118 0 7.071 l 40 40 c 0.938 0.938 2.209 1.465 3.536 1.465 s 2.598 -0.526 3.535 -1.465 l 40 -40 C 89.511 11.729 90 10.449 90 9.17 z" style="stroke: none; stroke-width: 1; stroke-dasharray: none; stroke-linecap: butt; stroke-linejoin: miter; stroke-miterlimit: 10; fill: rgb(205,33,50); fill-rule: nonzero; opacity: 1;" transform=" matrix(1 0 0 1 0 0) " stroke-linecap="round" />
	<path d="M 90 40.831 c 0 -1.28 -0.488 -2.559 -1.465 -3.536 c -1.952 -1.953 -5.118 -1.953 -7.07 0 L 45 73.759 L 8.535 37.295 c -1.953 -1.953 -5.119 -1.953 -7.071 0 c -1.952 1.954 -1.951 5.119 0 7.071 l 40 39.999 c 1.953 1.953 5.119 1.953 7.071 0 l 40 -39.999 C 89.511 43.39 90 42.111 90 40.831 z" style="stroke: none; stroke-width: 1; stroke-dasharray: none; stroke-linecap: butt; stroke-linejoin: miter; stroke-miterlimit: 10; fill: rgb(205,33,50); fill-rule: nonzero; opacity: 1;" transform=" matrix(1 0 0 1 0 0) " stroke-linecap="round" />
</g>
</svg>