<svg xmlns="http://www.w3.org/2000/svg" xmlns:xlink="http://www.w3.org/1999/xlink" version="1.1" width="256" height="256" viewBox="0 0 256 256" xml:space="preserve">

<defs>
</defs>
<g style="stroke: none; stroke-width: 0; stroke-dasharray: none; stroke-linecap: butt; stroke-linejoin: miter; stroke-miterlimit: 10; fill: none; fill-rule: nonzero; opacity: 1;" transform="translate(13.6466926070039 13.6466926070039) scale(2.53 2.53)" >
	<path d="M 57.254 54.832 l -3.246 -3.37 l -3.893 -9.728 c -0.676 -1.686 -2.199 -2.864 -3.978 -3.074 c -10.144 -1.2 -20.432 -1.199 -30.578 0 c -1.779 0.21 -3.303 1.388 -3.977 3.074 l -3.894 9.728 l -3.245 3.37 C 1.392 58 -0.219 62.335 0.024 66.727 l 0.361 6.526 c 0.033 0.603 0.15 1.182 0.326 1.734 v 8.747 c 0 1.469 1.195 2.664 2.663 2.664 h 8.723 c 1.469 0 2.663 -1.195 2.663 -2.664 v -3.914 h 32.174 v 3.914 c 0 1.469 1.195 2.664 2.663 2.664 h 8.724 c 1.469 0 2.664 -1.195 2.664 -2.664 v -8.749 c 0.176 -0.551 0.292 -1.128 0.325 -1.731 l 0.361 -6.526 C 61.915 62.336 60.304 58 57.254 54.832 z M 55.787 63.05 c 1.375 2.685 0.742 5.756 -1.414 6.861 c -2.156 1.104 -5.019 -0.177 -6.394 -2.861 c -1.375 -2.685 -0.742 -5.756 1.414 -6.86 C 51.549 59.084 54.412 60.365 55.787 63.05 z M 12.924 42.362 c 0.554 -1.383 1.812 -2.372 3.292 -2.547 c 9.755 -1.153 19.51 -1.153 29.265 0 c 1.48 0.175 2.738 1.164 3.292 2.547 l 3.794 9.479 c -14.479 -0.769 -28.957 -0.769 -43.436 0 L 12.924 42.362 z M 41.099 66.926 c 0 0.568 -0.461 1.028 -1.028 1.028 H 21.625 c -0.568 0 -1.028 -0.461 -1.028 -1.028 c 0 -0.568 0.46 -1.028 1.028 -1.028 h 18.446 C 40.639 65.898 41.099 66.358 41.099 66.926 z M 5.909 63.05 c 1.375 -2.685 4.238 -3.966 6.394 -2.861 c 2.156 1.104 2.789 4.176 1.414 6.86 c -1.375 2.685 -4.238 3.966 -6.394 2.861 C 5.167 68.806 4.534 65.734 5.909 63.05 z M 44.526 72.753 H 17.169 c -0.568 0 -1.028 -0.461 -1.028 -1.028 c 0 -0.568 0.46 -1.028 1.028 -1.028 h 27.357 c 0.568 0 1.028 0.461 1.028 1.028 C 45.555 72.292 45.094 72.753 44.526 72.753 z" style="stroke: none; stroke-width: 1; stroke-dasharray: none; stroke-linecap: butt; stroke-linejoin: miter; stroke-miterlimit: 10; fill: rgb(205,33,50); fill-rule: nonzero; opacity: 1;" transform=" matrix(1 0 0 1 0 0) " stroke-linecap="round" />
	<path d="M 85.558 36.389 l -3.246 -3.37 l -3.893 -9.728 c -0.676 -1.686 -2.199 -2.864 -3.978 -3.074 c -10.144 -1.2 -20.432 -1.199 -30.578 0 c -1.779 0.21 -3.303 1.388 -3.977 3.074 l -3.894 9.728 l -0.788 0.818 c 3.811 0.123 7.616 0.404 11.401 0.851 c 3.233 0.381 6 2.511 7.221 5.558 l 2.885 7.21 h 11.664 c 0.568 0 1.028 0.461 1.028 1.028 c 0 0.568 -0.461 1.028 -1.028 1.028 H 57.683 l 2.453 2.545 c 0.061 0.063 0.111 0.134 0.171 0.197 h 12.525 c 0.568 0 1.028 0.461 1.028 1.028 s -0.461 1.028 -1.028 1.028 H 61.972 c 1.517 2.13 2.601 4.531 3.189 7.066 h 10.078 v 3.914 c 0 1.469 1.195 2.664 2.663 2.664 h 8.724 c 1.469 0 2.664 -1.195 2.664 -2.664 v -8.749 c 0.176 -0.551 0.292 -1.128 0.325 -1.731 l 0.361 -6.526 C 90.22 43.893 88.609 39.558 85.558 36.389 z M 37.435 33.398 l 3.794 -9.479 c 0.554 -1.383 1.812 -2.372 3.292 -2.547 c 9.755 -1.153 19.51 -1.153 29.265 0 c 1.48 0.175 2.738 1.164 3.292 2.547 l 3.794 9.479 C 66.392 32.63 51.913 32.63 37.435 33.398 z M 82.678 51.468 c -2.156 1.104 -5.019 -0.177 -6.394 -2.861 c -1.375 -2.685 -0.742 -5.756 1.414 -6.86 c 2.156 -1.104 5.019 0.177 6.394 2.861 S 84.834 50.364 82.678 51.468 z" style="stroke: none; stroke-width: 1; stroke-dasharray: none; stroke-linecap: butt; stroke-linejoin: miter; stroke-miterlimit: 10; fill: rgb(205,33,50); fill-rule: nonzero; opacity: 1;" transform=" matrix(1 0 0 1 0 0) " stroke-linecap="round" />
	<path d="M 32.535 30.843 h -8.88 c -0.512 0 -0.928 -0.416 -0.928 -0.928 s 0.415 -0.928 0.928 -0.928 h 9.643 l 2.875 -7.182 c 1.22 -3.047 3.987 -5.178 7.222 -5.56 c 0.673 -0.08 1.349 -0.14 2.023 -0.209 c -11.012 -0.401 -22.024 -0.315 -33.035 0.269 l 3.423 -8.551 c 0.5 -1.248 1.635 -2.14 2.97 -2.298 c 8.8 -1.041 17.601 -1.041 26.401 0 c 1.335 0.158 2.47 1.05 2.97 2.298 l 3.12 7.796 c 0.471 -0.028 0.942 -0.04 1.413 -0.062 l -3.321 -8.3 c -0.609 -1.521 -1.984 -2.583 -3.589 -2.773 c -9.152 -1.082 -18.433 -1.082 -27.586 0 c -1.605 0.19 -2.98 1.252 -3.588 2.773 l -3.513 8.776 l -2.928 3.04 c -2.752 2.858 -4.205 6.77 -3.986 10.732 l 0.326 5.887 c 0.03 0.544 0.135 1.067 0.294 1.564 v 7.891 c 0 0.573 0.21 1.092 0.545 1.505 l 2.536 -6.335 c 1.22 -3.047 3.987 -5.178 7.222 -5.56 c 1.208 -0.143 2.419 -0.265 3.631 -0.375 c -0.002 -0.024 -0.014 -0.044 -0.014 -0.069 c 0 -0.512 0.415 -0.928 0.928 -0.928 h 10.518 L 32.535 30.843 z M 16.52 30.026 c -1.241 2.422 -3.823 3.578 -5.768 2.581 c -1.945 -0.996 -2.516 -3.767 -1.276 -6.189 c 1.241 -2.422 3.823 -3.578 5.768 -2.581 C 17.19 24.833 17.761 27.604 16.52 30.026 z" style="stroke: none; stroke-width: 1; stroke-dasharray: none; stroke-linecap: butt; stroke-linejoin: miter; stroke-miterlimit: 10; fill: rgb(205,33,50); fill-rule: nonzero; opacity: 1;" transform=" matrix(1 0 0 1 0 0) " stroke-linecap="round" />
</g>
</svg>