<svg xmlns="http://www.w3.org/2000/svg" xmlns:xlink="http://www.w3.org/1999/xlink" version="1.1" width="256" height="256" viewBox="0 0 256 256" xml:space="preserve">

<defs>
</defs>
<g style="stroke: none; stroke-width: 0; stroke-dasharray: none; stroke-linecap: butt; stroke-linejoin: miter; stroke-miterlimit: 10; fill: none; fill-rule: nonzero; opacity: 1;" transform="translate(18.12918287937744 18.12918287937744) scale(2.43 2.43)" >
	<path d="M 45.402 79.103 c -2.551 0 -4.627 -2.075 -4.627 -4.627 s 2.076 -4.627 4.627 -4.627 c 2.552 0 4.627 2.075 4.627 4.627 S 47.954 79.103 45.402 79.103 z M 45.402 71.849 c -1.449 0 -2.627 1.179 -2.627 2.627 s 1.178 2.627 2.627 2.627 c 1.448 0 2.627 -1.179 2.627 -2.627 S 46.851 71.849 45.402 71.849 z" style="stroke: none; stroke-width: 1; stroke-dasharray: none; stroke-linecap: butt; stroke-linejoin: miter; stroke-miterlimit: 10; fill: rgb(205,33,50); fill-rule: nonzero; opacity: 1;" transform=" matrix(1 0 0 1 0 0) " stroke-linecap="round" />
	<path d="M 42.423 27.575 c -0.156 0 -0.314 -0.036 -0.461 -0.113 c -1.613 -0.842 -3.181 -0.842 -4.794 0 c -0.488 0.255 -1.094 0.064 -1.349 -0.424 c -0.255 -0.49 -0.065 -1.094 0.424 -1.349 c 2.204 -1.148 4.44 -1.149 6.644 0 c 0.49 0.255 0.68 0.859 0.424 1.349 C 43.132 27.379 42.784 27.575 42.423 27.575 z" style="stroke: none; stroke-width: 1; stroke-dasharray: none; stroke-linecap: butt; stroke-linejoin: miter; stroke-miterlimit: 10; fill: rgb(205,33,50); fill-rule: nonzero; opacity: 1;" transform=" matrix(1 0 0 1 0 0) " stroke-linecap="round" />
	<path d="M 47.577 27.575 c -0.361 0 -0.709 -0.196 -0.888 -0.538 c -0.255 -0.49 -0.065 -1.094 0.424 -1.349 c 2.205 -1.149 4.439 -1.149 6.645 0 c 0.49 0.255 0.68 0.859 0.425 1.349 c -0.256 0.489 -0.858 0.68 -1.349 0.424 c -1.613 -0.84 -3.182 -0.841 -4.795 0 C 47.891 27.539 47.732 27.575 47.577 27.575 z" style="stroke: none; stroke-width: 1; stroke-dasharray: none; stroke-linecap: butt; stroke-linejoin: miter; stroke-miterlimit: 10; fill: rgb(205,33,50); fill-rule: nonzero; opacity: 1;" transform=" matrix(1 0 0 1 0 0) " stroke-linecap="round" />
	<path d="M 44.993 40.521 c -1.61 0 -3.218 -0.76 -4.779 -2.281 c -0.396 -0.386 -0.404 -1.019 -0.019 -1.414 c 0.386 -0.395 1.019 -0.404 1.414 -0.019 c 2.338 2.277 4.43 2.278 6.785 -0.002 c 0.397 -0.382 1.03 -0.373 1.414 0.023 s 0.374 1.03 -0.023 1.414 C 48.215 39.762 46.603 40.521 44.993 40.521 z" style="stroke: none; stroke-width: 1; stroke-dasharray: none; stroke-linecap: butt; stroke-linejoin: miter; stroke-miterlimit: 10; fill: rgb(205,33,50); fill-rule: nonzero; opacity: 1;" transform=" matrix(1 0 0 1 0 0) " stroke-linecap="round" />
	<path d="M 84.541 88 H 67.619 v -0.166 l 5.123 -6.468 c 1.417 -1.954 2.166 -4.262 2.166 -6.673 V 61.28 c 0 -4.342 -3.336 -8.056 -7.932 -8.83 l -7.804 -1.314 c -2.538 -0.428 -4.381 -2.437 -4.381 -4.801 l -0.037 -1.593 c 0.124 -0.116 0.258 -0.217 0.38 -0.337 c 0.31 -0.307 0.599 -0.636 0.89 -0.965 c 3.357 -0.605 5.978 -3.338 6.413 -6.751 h 1.614 c 1.594 0 2.89 -1.296 2.89 -2.89 v -7.964 c 0 -1.593 -1.296 -2.89 -2.89 -2.89 h -2.52 l 0.011 -0.155 c 0.309 -0.142 0.529 -0.428 0.576 -0.767 c 1.055 -7.535 -0.052 -13.243 -3.289 -16.966 C 55.91 1.702 51.328 0 45.209 0 C 39.081 0 33.8 2.132 30.72 5.848 c -3.075 3.711 -4.029 8.795 -2.835 15.111 c 0.051 0.273 0.219 0.493 0.439 0.639 l 0.1 1.347 h -2.475 c -1.593 0 -2.889 1.296 -2.889 2.89 v 7.964 c 0 1.593 1.296 2.89 2.889 2.89 h 4.124 c 1.04 3.081 2.826 5.847 5.175 8.057 l -0.039 1.612 c 0 2.341 -1.843 4.35 -4.381 4.777 l -7.804 1.314 c -4.596 0.774 -7.931 4.487 -7.931 8.83 v 13.413 c 0 2.413 0.749 4.721 2.192 6.707 l 5.097 6.433 V 88 H 5.459 c -0.552 0 -1 0.447 -1 1 s 0.448 1 1 1 h 16.922 h 45.238 h 16.922 c 0.553 0 1 -0.447 1 -1 S 85.094 88 84.541 88 z M 71.148 80.158 l -3.529 4.454 V 70.023 h 5.289 v 4.67 C 72.908 76.681 72.291 78.582 71.148 80.158 z M 58.331 40.252 c 0.317 -0.55 0.612 -1.111 0.873 -1.686 c 0.279 -0.613 0.515 -1.242 0.728 -1.877 h 0.484 C 60.17 38.118 59.411 39.373 58.331 40.252 z M 64.051 24.945 c 0.49 0 0.89 0.399 0.89 0.89 v 7.964 c 0 0.491 -0.399 0.89 -0.89 0.89 h -3.569 c 0.191 -0.864 0.342 -1.739 0.417 -2.632 l 0.494 -7.111 H 64.051 z M 57.88 8.16 c 0.11 -0.204 0.218 -0.412 0.324 -0.62 c 1.932 2.954 2.651 7.118 2.144 12.418 c -0.012 0.004 -0.021 0.014 -0.033 0.019 C 57.199 17.439 55.039 14.666 57.88 8.16 z M 32.26 7.125 C 34.959 3.868 39.679 2 45.209 2 c 5.14 0 9.03 1.278 11.576 3.8 c -0.241 0.479 -0.461 0.945 -0.659 1.396 C 51.24 16.271 41.963 20.728 29.719 19.84 C 28.847 14.487 29.701 10.212 32.26 7.125 z M 25.949 34.689 c -0.49 0 -0.889 -0.399 -0.889 -0.89 v -7.964 c 0 -0.491 0.399 -0.89 0.889 -0.89 h 2.624 l 0.53 7.125 c 0.074 0.889 0.215 1.762 0.405 2.618 H 25.949 z M 31.097 31.913 L 30.35 21.876 c 10.387 0.579 18.741 -2.53 24.262 -8.937 c -0.22 4.471 2.402 6.983 4.982 9.019 l -0.69 9.945 c -0.17 2.026 -0.682 3.989 -1.521 5.834 c -0.442 0.972 -0.978 1.912 -1.591 2.792 c -0.246 0.352 -0.514 0.689 -0.785 1.023 c -0.127 0.008 -0.254 0.019 -0.383 0.019 h -5.803 c -0.553 0 -1 0.448 -1 1 s 0.447 1 1 1 h 4.243 c -1.687 1.511 -3.609 2.688 -5.754 3.464 c -1.49 0.539 -3.133 0.539 -4.623 0 C 36.22 44.697 31.669 38.758 31.097 31.913 z M 37.208 46.383 l 0 -0.011 c 1.456 1.052 3.064 1.917 4.801 2.544 c 0.964 0.349 1.978 0.522 2.991 0.522 c 1.014 0 2.026 -0.174 2.991 -0.522 c 1.734 -0.626 3.329 -1.5 4.801 -2.563 l 0 0.005 c 0 2.306 1.229 4.378 3.152 5.627 c -7.341 6.653 -14.523 6.654 -21.887 0 C 35.98 50.737 37.208 48.671 37.208 46.383 z M 23.355 54.423 l 7.804 -1.314 c 0.32 -0.054 0.628 -0.132 0.93 -0.222 c 4.291 4.081 8.607 6.141 12.921 6.141 c 4.313 0 8.623 -2.061 12.901 -6.141 c 0.302 0.09 0.61 0.168 0.929 0.222 l 7.804 1.314 c 3.629 0.611 6.264 3.495 6.264 6.857 v 6.743 h -5.289 v -1.641 c 0 -2.825 -2.299 -5.124 -5.124 -5.124 h -34.99 c -2.825 0 -5.124 2.299 -5.124 5.124 v 1.641 h -5.289 V 61.28 C 17.092 57.918 19.727 55.034 23.355 54.423 z M 18.877 80.192 c -1.168 -1.609 -1.785 -3.511 -1.785 -5.499 v -4.67 h 5.289 v 14.59 L 18.877 80.192 z M 24.381 88 V 66.383 c 0 -1.723 1.401 -3.124 3.124 -3.124 h 34.99 c 1.723 0 3.124 1.401 3.124 3.124 V 88 H 24.381 z" style="stroke: none; stroke-width: 1; stroke-dasharray: none; stroke-linecap: butt; stroke-linejoin: miter; stroke-miterlimit: 10; fill: rgb(205,33,50); fill-rule: nonzero; opacity: 1;" transform=" matrix(1 0 0 1 0 0) " stroke-linecap="round" />
</g>
</svg>