<svg xmlns="http://www.w3.org/2000/svg" xmlns:xlink="http://www.w3.org/1999/xlink" version="1.1" width="256" height="256" viewBox="0 0 256 256" xml:space="preserve">

<defs>
</defs>
<g style="stroke: none; stroke-width: 0; stroke-dasharray: none; stroke-linecap: butt; stroke-linejoin: miter; stroke-miterlimit: 10; fill: none; fill-rule: nonzero; opacity: 1;" transform="translate(13.6466926070039 13.6466926070039) scale(2.53 2.53)" >
	<path d="M 43.174 90 c -2.742 0 -5.45 -1.007 -8.078 -1.983 c -2.884 -1.072 -5.864 -2.18 -8.818 -1.918 l -7.316 0.649 V 58.412 l 3.989 -0.354 c 2.471 -0.223 4.55 0.743 6.551 1.676 c 1.873 0.873 3.641 1.694 5.673 1.531 l 13.063 -2.371 c 4.688 -0.803 7.267 1.895 8.839 4.368 l 14.247 -6.624 c 5.394 -2.424 11.447 0.004 15.082 6.035 c 0.959 1.591 0.427 3.705 -1.187 4.713 c -1.854 1.156 -3.698 2.313 -5.524 3.456 c -15.93 9.981 -29.688 18.603 -35.58 19.117 C 43.801 89.987 43.487 90 43.174 90 z M 27.188 84.059 c 3 0 5.844 1.058 8.604 2.083 c 2.846 1.058 5.538 2.054 8.146 1.825 c 5.414 -0.474 19.636 -9.385 34.693 -18.819 c 1.827 -1.145 3.673 -2.302 5.526 -3.458 c 0.692 -0.433 0.932 -1.323 0.533 -1.984 c -3.086 -5.123 -8.126 -7.231 -12.537 -5.248 l -15.883 7.384 l -0.456 -0.796 c -1.4 -2.441 -3.354 -4.847 -7.231 -4.182 l -13.151 2.383 c -2.655 0.222 -4.75 -0.755 -6.777 -1.7 c -1.842 -0.857 -3.581 -1.664 -5.53 -1.496 l -2.166 0.192 v 24.32 l 5.14 -0.456 C 26.466 84.074 26.829 84.059 27.188 84.059 z" style="stroke: none; stroke-width: 1; stroke-dasharray: none; stroke-linecap: butt; stroke-linejoin: miter; stroke-miterlimit: 10; fill: rgb(205,33,50); fill-rule: nonzero; opacity: 1;" transform=" matrix(1 0 0 1 0 0) " stroke-linecap="round" />
	<path d="M 39.508 76.28 c -0.467 0 -0.884 -0.328 -0.979 -0.804 c -0.108 -0.542 0.243 -1.068 0.784 -1.177 c 5.155 -1.031 10.95 -3.385 17.69 -7.188 l -1.187 -2.067 c -0.275 -0.479 -0.109 -1.091 0.369 -1.365 c 0.48 -0.273 1.091 -0.11 1.365 0.369 l 1.686 2.938 c 0.274 0.479 0.11 1.09 -0.368 1.364 c -7.304 4.205 -13.572 6.792 -19.163 7.91 C 39.639 76.274 39.573 76.28 39.508 76.28 z" style="stroke: none; stroke-width: 1; stroke-dasharray: none; stroke-linecap: butt; stroke-linejoin: miter; stroke-miterlimit: 10; fill: rgb(205,33,50); fill-rule: nonzero; opacity: 1;" transform=" matrix(1 0 0 1 0 0) " stroke-linecap="round" />
	<path d="M 17.62 90 H 6.457 c -1.842 0 -3.341 -1.499 -3.341 -3.342 V 56.65 c 0 -1.843 1.499 -3.342 3.341 -3.342 H 17.62 c 1.842 0 3.341 1.499 3.341 3.342 v 30.008 C 20.961 88.501 19.462 90 17.62 90 z M 6.457 55.309 c -0.74 0 -1.341 0.602 -1.341 1.342 v 30.008 c 0 0.74 0.602 1.342 1.341 1.342 H 17.62 c 0.74 0 1.341 -0.602 1.341 -1.342 V 56.65 c 0 -0.74 -0.602 -1.342 -1.341 -1.342 H 6.457 z" style="stroke: none; stroke-width: 1; stroke-dasharray: none; stroke-linecap: butt; stroke-linejoin: miter; stroke-miterlimit: 10; fill: rgb(205,33,50); fill-rule: nonzero; opacity: 1;" transform=" matrix(1 0 0 1 0 0) " stroke-linecap="round" />
	<path d="M 45 52.438 c -8.89 0 -16.122 -7.232 -16.122 -16.121 c 0 -8.89 7.232 -16.122 16.122 -16.122 s 16.121 7.232 16.121 16.122 C 61.121 45.206 53.89 52.438 45 52.438 z M 45 22.195 c -7.787 0 -14.122 6.335 -14.122 14.122 S 37.213 50.438 45 50.438 c 7.786 0 14.121 -6.334 14.121 -14.121 S 52.786 22.195 45 22.195 z" style="stroke: none; stroke-width: 1; stroke-dasharray: none; stroke-linecap: butt; stroke-linejoin: miter; stroke-miterlimit: 10; fill: rgb(205,33,50); fill-rule: nonzero; opacity: 1;" transform=" matrix(1 0 0 1 0 0) " stroke-linecap="round" />
	<path d="M 47.016 34.95 h -4.031 c -0.569 0 -1.032 -0.463 -1.032 -1.032 V 30.79 c 0 -0.569 0.463 -1.032 1.032 -1.032 h 4.031 c 0.569 0 1.032 0.463 1.032 1.032 c 0 0.552 0.447 1 1 1 s 1 -0.448 1 -1 c 0 -1.672 -1.36 -3.032 -3.032 -3.032 H 46 v -1.517 c 0 -0.552 -0.448 -1 -1 -1 s -1 0.448 -1 1 v 1.517 h -1.016 c -1.672 0 -3.032 1.36 -3.032 3.032 v 3.128 c 0 1.672 1.36 3.032 3.032 3.032 h 4.031 c 0.569 0 1.032 0.463 1.032 1.032 v 3.128 c 0 0.569 -0.463 1.032 -1.032 1.032 h -4.031 c -0.569 0 -1.032 -0.463 -1.032 -1.032 c 0 -0.552 -0.448 -1 -1 -1 s -1 0.448 -1 1 c 0 1.672 1.36 3.032 3.032 3.032 H 44 v 1.738 c 0 0.553 0.448 1 1 1 s 1 -0.447 1 -1 v -1.738 h 1.016 c 1.672 0 3.032 -1.36 3.032 -3.032 v -3.128 C 50.048 36.31 48.688 34.95 47.016 34.95 z" style="stroke: none; stroke-width: 1; stroke-dasharray: none; stroke-linecap: butt; stroke-linejoin: miter; stroke-miterlimit: 10; fill: rgb(205,33,50); fill-rule: nonzero; opacity: 1;" transform=" matrix(1 0 0 1 0 0) " stroke-linecap="round" />
	<path d="M 45 14.28 c -0.552 0 -1 -0.448 -1 -1 V 1 c 0 -0.552 0.448 -1 1 -1 s 1 0.448 1 1 v 12.28 C 46 13.832 45.552 14.28 45 14.28 z" style="stroke: none; stroke-width: 1; stroke-dasharray: none; stroke-linecap: butt; stroke-linejoin: miter; stroke-miterlimit: 10; fill: rgb(205,33,50); fill-rule: nonzero; opacity: 1;" transform=" matrix(1 0 0 1 0 0) " stroke-linecap="round" />
	<path d="M 55 17.28 c -0.553 0 -1 -0.448 -1 -1 V 4 c 0 -0.552 0.447 -1 1 -1 s 1 0.448 1 1 v 12.28 C 56 16.832 55.553 17.28 55 17.28 z" style="stroke: none; stroke-width: 1; stroke-dasharray: none; stroke-linecap: butt; stroke-linejoin: miter; stroke-miterlimit: 10; fill: rgb(205,33,50); fill-rule: nonzero; opacity: 1;" transform=" matrix(1 0 0 1 0 0) " stroke-linecap="round" />
	<path d="M 35 17.28 c -0.552 0 -1 -0.448 -1 -1 V 4 c 0 -0.552 0.448 -1 1 -1 s 1 0.448 1 1 v 12.28 C 36 16.832 35.552 17.28 35 17.28 z" style="stroke: none; stroke-width: 1; stroke-dasharray: none; stroke-linecap: butt; stroke-linejoin: miter; stroke-miterlimit: 10; fill: rgb(205,33,50); fill-rule: nonzero; opacity: 1;" transform=" matrix(1 0 0 1 0 0) " stroke-linecap="round" />
</g>
</svg>