<svg xmlns="http://www.w3.org/2000/svg" xmlns:xlink="http://www.w3.org/1999/xlink" version="1.1" width="256" height="256" viewBox="0 0 256 256" xml:space="preserve">

<defs>
</defs>
<g style="stroke: none; stroke-width: 0; stroke-dasharray: none; stroke-linecap: butt; stroke-linejoin: miter; stroke-miterlimit: 10; fill: none; fill-rule: nonzero; opacity: 1;" transform="translate(18.12918287937744 18.12918287937744) scale(2.43 2.43)" >
	<path d="M 45 25.952 c -2.753 0 -4.993 -2.239 -4.993 -4.993 s 2.239 -4.993 4.993 -4.993 s 4.993 2.24 4.993 4.993 S 47.753 25.952 45 25.952 z M 45 17.966 c -1.65 0 -2.993 1.342 -2.993 2.993 c 0 1.65 1.342 2.993 2.993 2.993 c 1.65 0 2.993 -1.342 2.993 -2.993 C 47.993 19.309 46.65 17.966 45 17.966 z" style="stroke: none; stroke-width: 1; stroke-dasharray: none; stroke-linecap: butt; stroke-linejoin: miter; stroke-miterlimit: 10; fill: rgb(205,33,50); fill-rule: nonzero; opacity: 1;" transform=" matrix(1 0 0 1 0 0) " stroke-linecap="round" />
	<path d="M 53.47 13.489 c -0.256 0 -0.512 -0.098 -0.707 -0.293 c -2.073 -2.073 -4.83 -3.215 -7.763 -3.215 c -2.932 0 -5.689 1.142 -7.763 3.215 c -0.391 0.391 -1.024 0.391 -1.414 0 s -0.391 -1.024 0 -1.414 C 38.274 9.331 41.533 7.981 45 7.981 c 3.467 0 6.726 1.35 9.177 3.801 c 0.391 0.391 0.391 1.024 0 1.414 C 53.981 13.392 53.726 13.489 53.47 13.489 z" style="stroke: none; stroke-width: 1; stroke-dasharray: none; stroke-linecap: butt; stroke-linejoin: miter; stroke-miterlimit: 10; fill: rgb(205,33,50); fill-rule: nonzero; opacity: 1;" transform=" matrix(1 0 0 1 0 0) " stroke-linecap="round" />
	<path d="M 59.117 7.843 c -0.256 0 -0.512 -0.098 -0.707 -0.293 c -7.394 -7.394 -19.425 -7.393 -26.819 0 c -0.391 0.391 -1.024 0.391 -1.414 0 c -0.391 -0.391 -0.391 -1.024 0 -1.414 c 8.173 -8.174 21.473 -8.174 29.648 0 c 0.391 0.391 0.391 1.024 0 1.414 C 59.629 7.745 59.373 7.843 59.117 7.843 z" style="stroke: none; stroke-width: 1; stroke-dasharray: none; stroke-linecap: butt; stroke-linejoin: miter; stroke-miterlimit: 10; fill: rgb(205,33,50); fill-rule: nonzero; opacity: 1;" transform=" matrix(1 0 0 1 0 0) " stroke-linecap="round" />
	<path d="M 72.074 49.3 c -17.964 -0.955 -36.183 -0.955 -54.148 0 l -0.106 -1.998 c 18.036 -0.956 36.325 -0.956 54.36 0 L 72.074 49.3 z" style="stroke: none; stroke-width: 1; stroke-dasharray: none; stroke-linecap: butt; stroke-linejoin: miter; stroke-miterlimit: 10; fill: rgb(205,33,50); fill-rule: nonzero; opacity: 1;" transform=" matrix(1 0 0 1 0 0) " stroke-linecap="round" />
	<path d="M 22.467 90.005 H 11.984 c -1.862 0 -3.377 -1.515 -3.377 -3.377 V 76.012 c 0 -0.553 0.448 -1 1 -1 s 1 0.447 1 1 v 10.615 c 0 0.759 0.618 1.377 1.377 1.377 h 10.483 c 0.759 0 1.377 -0.618 1.377 -1.377 v -5.527 c 0 -0.553 0.448 -1 1 -1 s 1 0.447 1 1 v 5.527 C 25.844 88.49 24.329 90.005 22.467 90.005 z" style="stroke: none; stroke-width: 1; stroke-dasharray: none; stroke-linecap: butt; stroke-linejoin: miter; stroke-miterlimit: 10; fill: rgb(205,33,50); fill-rule: nonzero; opacity: 1;" transform=" matrix(1 0 0 1 0 0) " stroke-linecap="round" />
	<path d="M 78.016 90.005 H 67.533 c -1.863 0 -3.377 -1.515 -3.377 -3.377 v -5.304 c 0 -0.553 0.447 -1 1 -1 s 1 0.447 1 1 v 5.304 c 0 0.759 0.618 1.377 1.377 1.377 h 10.484 c 0.759 0 1.377 -0.618 1.377 -1.377 V 76.003 c 0 -0.553 0.447 -1 1 -1 s 1 0.447 1 1 v 10.624 C 81.394 88.49 79.879 90.005 78.016 90.005 z" style="stroke: none; stroke-width: 1; stroke-dasharray: none; stroke-linecap: butt; stroke-linejoin: miter; stroke-miterlimit: 10; fill: rgb(205,33,50); fill-rule: nonzero; opacity: 1;" transform=" matrix(1 0 0 1 0 0) " stroke-linecap="round" />
	<path d="M 73.271 82.101 H 16.729 c -4.524 0 -8.265 -3.539 -8.515 -8.057 l -0.434 -7.844 c -0.294 -5.327 1.659 -10.585 5.359 -14.426 l 3.876 -4.026 l 4.667 -11.658 c 0.835 -2.086 2.721 -3.543 4.922 -3.804 c 12.206 -1.443 24.583 -1.443 36.788 0 c 2.202 0.261 4.088 1.718 4.923 3.804 l 4.666 11.658 l 3.877 4.026 c 3.7 3.841 5.653 9.1 5.358 14.426 l -0.434 7.844 C 81.535 78.561 77.795 82.101 73.271 82.101 z M 45 33.204 c -6.068 0 -12.134 0.356 -18.16 1.068 c -1.473 0.174 -2.738 1.155 -3.3 2.56 l -4.812 12.021 l -4.148 4.307 c -3.315 3.443 -5.066 8.155 -4.802 12.929 l 0.434 7.843 c 0.191 3.458 3.054 6.168 6.517 6.168 h 56.541 c 3.463 0 6.326 -2.709 6.517 -6.168 l 0.434 -7.844 c 0.264 -4.773 -1.486 -9.484 -4.803 -12.928 l -4.147 -4.307 l -0.073 -0.181 l -4.739 -11.84 c -0.562 -1.405 -1.826 -2.386 -3.3 -2.56 C 57.135 33.56 51.066 33.204 45 33.204 z" style="stroke: none; stroke-width: 1; stroke-dasharray: none; stroke-linecap: butt; stroke-linejoin: miter; stroke-miterlimit: 10; fill: rgb(205,33,50); fill-rule: nonzero; opacity: 1;" transform=" matrix(1 0 0 1 0 0) " stroke-linecap="round" />
	<path d="M 20.994 75.673 H 18 c -0.552 0 -1 -0.447 -1 -1 c 0 -0.553 0.448 -1 1 -1 h 2.994 c 0.552 0 1 0.447 1 1 C 21.995 75.226 21.547 75.673 20.994 75.673 z" style="stroke: none; stroke-width: 1; stroke-dasharray: none; stroke-linecap: butt; stroke-linejoin: miter; stroke-miterlimit: 10; fill: rgb(205,33,50); fill-rule: nonzero; opacity: 1;" transform=" matrix(1 0 0 1 0 0) " stroke-linecap="round" />
	<path d="M 72.006 75.673 H 69 c -0.553 0 -1 -0.447 -1 -1 c 0 -0.553 0.447 -1 1 -1 h 3.006 c 0.553 0 1 0.447 1 1 C 73.006 75.226 72.559 75.673 72.006 75.673 z" style="stroke: none; stroke-width: 1; stroke-dasharray: none; stroke-linecap: butt; stroke-linejoin: miter; stroke-miterlimit: 10; fill: rgb(205,33,50); fill-rule: nonzero; opacity: 1;" transform=" matrix(1 0 0 1 0 0) " stroke-linecap="round" />
	<path d="M 55.362 76.113 H 34.638 c -1.279 0 -2.429 -0.711 -3.001 -1.855 l -0.645 -1.29 c -0.523 -1.048 -0.469 -2.269 0.147 -3.265 c 0.616 -0.996 1.683 -1.591 2.854 -1.591 h 22.014 c 1.172 0 2.239 0.595 2.855 1.591 c 0.615 0.996 0.67 2.217 0.146 3.265 l -0.645 1.29 C 57.79 75.402 56.641 76.113 55.362 76.113 z M 33.993 70.112 c -0.48 0 -0.9 0.234 -1.152 0.643 c -0.252 0.408 -0.274 0.889 -0.06 1.318 l 0.645 1.29 c 0.231 0.462 0.695 0.749 1.212 0.749 h 20.724 c 0.517 0 0.981 -0.287 1.212 -0.749 l 0.645 -1.29 c 0.215 -0.43 0.193 -0.91 -0.059 -1.318 c -0.253 -0.408 -0.673 -0.643 -1.153 -0.643 H 33.993 z" style="stroke: none; stroke-width: 1; stroke-dasharray: none; stroke-linecap: butt; stroke-linejoin: miter; stroke-miterlimit: 10; fill: rgb(205,33,50); fill-rule: nonzero; opacity: 1;" transform=" matrix(1 0 0 1 0 0) " stroke-linecap="round" />
	<path d="M 24.399 70.112 h -7.803 c -2.168 0 -3.933 -1.765 -3.933 -3.933 v -2.071 c 0 -1.231 0.56 -2.366 1.535 -3.118 c 0.976 -0.75 2.217 -1 3.406 -0.684 l 7.802 2.071 c 1.722 0.458 2.924 2.021 2.924 3.801 C 28.331 68.347 26.567 70.112 24.399 70.112 z M 16.591 62.175 c -0.419 0 -0.83 0.138 -1.173 0.402 c -0.48 0.368 -0.754 0.927 -0.754 1.531 v 2.071 c 0 1.066 0.867 1.933 1.932 1.933 h 7.803 c 1.066 0 1.932 -0.867 1.932 -1.933 c 0 -0.875 -0.591 -1.643 -1.437 -1.867 l -7.802 -2.071 C 16.926 62.197 16.758 62.175 16.591 62.175 z" style="stroke: none; stroke-width: 1; stroke-dasharray: none; stroke-linecap: butt; stroke-linejoin: miter; stroke-miterlimit: 10; fill: rgb(205,33,50); fill-rule: nonzero; opacity: 1;" transform=" matrix(1 0 0 1 0 0) " stroke-linecap="round" />
	<path d="M 73.403 70.112 h -7.802 c -2.168 0 -3.933 -1.765 -3.933 -3.933 c 0 -1.78 1.202 -3.343 2.923 -3.801 l 7.803 -2.071 c 1.189 -0.318 2.431 -0.067 3.407 0.684 c 0.976 0.751 1.535 1.887 1.535 3.118 v 2.071 C 77.336 68.347 75.572 70.112 73.403 70.112 z M 73.408 62.175 c -0.166 0 -0.334 0.022 -0.5 0.066 l -7.803 2.071 c -0.846 0.225 -1.437 0.992 -1.437 1.867 c 0 1.066 0.867 1.933 1.933 1.933 h 7.802 c 1.066 0 1.933 -0.867 1.933 -1.933 v -2.071 c 0 -0.605 -0.275 -1.163 -0.755 -1.531 C 74.238 62.312 73.828 62.175 73.408 62.175 z" style="stroke: none; stroke-width: 1; stroke-dasharray: none; stroke-linecap: butt; stroke-linejoin: miter; stroke-miterlimit: 10; fill: rgb(205,33,50); fill-rule: nonzero; opacity: 1;" transform=" matrix(1 0 0 1 0 0) " stroke-linecap="round" />
</g>
</svg>