<svg xmlns="http://www.w3.org/2000/svg" xmlns:xlink="http://www.w3.org/1999/xlink" version="1.1" width="256" height="256" viewBox="0 0 256 256" xml:space="preserve">

<defs>
</defs>
<g style="stroke: none; stroke-width: 0; stroke-dasharray: none; stroke-linecap: butt; stroke-linejoin: miter; stroke-miterlimit: 10; fill: none; fill-rule: nonzero; opacity: 1;" transform="translate(1.4065934065934016 1.4065934065934016) scale(2.81 2.81)" >
	<path d="M 89.879 66.476 l -6.097 -11.262 l 0.761 -3.154 c 0.414 -1.719 0.347 -3.517 -0.193 -5.199 l -1.348 -4.19 c -0.349 -1.086 -0.904 -2.076 -1.651 -2.941 l -1.634 -1.891 C 76.875 20.809 62.322 8.476 45 8.476 c -17.323 0 -31.877 12.334 -34.717 29.365 L 8.65 39.73 c -0.747 0.863 -1.302 1.852 -1.652 2.94 l -1.347 4.191 c -0.541 1.683 -0.608 3.48 -0.194 5.199 l 0.761 3.154 L 0.121 66.476 c -0.263 0.486 -0.083 1.093 0.403 1.356 c 0.487 0.262 1.093 0.082 1.355 -0.403 l 6.28 -11.6 c 0.118 -0.218 0.151 -0.471 0.093 -0.711 l -0.851 -3.527 c -0.328 -1.361 -0.275 -2.786 0.154 -4.119 l 1.347 -4.19 c 0.221 -0.687 0.55 -1.323 0.979 -1.895 c -0.049 0.763 -0.074 1.529 -0.074 2.293 c 0 0.265 0.105 0.52 0.293 0.707 c 3.115 3.115 5.993 4.632 8.798 4.638 c 0.002 0 0.005 0.001 0.007 0.001 h 0.012 h 2.906 l -0.24 4.379 c -0.218 0.612 -0.52 1.182 -0.895 1.7 c -0.004 0.005 -0.006 0.01 -0.01 0.015 c -0.379 0.519 -0.832 0.983 -1.35 1.38 l -2.934 2.244 c -0.159 0.121 -0.278 0.288 -0.342 0.479 L 6.869 86.866 c -0.174 0.524 0.11 1.091 0.634 1.265 c 0.105 0.034 0.211 0.051 0.315 0.051 c 0.419 0 0.81 -0.266 0.949 -0.685 l 7.704 -23.193 C 23.093 73.469 33.608 78.886 45 78.886 c 11.391 0 21.907 -5.416 28.529 -14.582 l 7.703 23.193 c 0.14 0.419 0.53 0.685 0.949 0.685 c 0.104 0 0.211 -0.017 0.315 -0.051 c 0.523 -0.174 0.808 -0.74 0.634 -1.265 l -9.182 -27.642 c -0.063 -0.19 -0.183 -0.357 -0.342 -0.479 l -2.935 -2.244 c -0.515 -0.394 -0.964 -0.855 -1.34 -1.368 c -0.009 -0.012 -0.016 -0.024 -0.025 -0.035 c -0.373 -0.515 -0.673 -1.083 -0.889 -1.691 l -0.24 -4.379 h 2.889 c 0.012 0 0.024 0.003 0.035 0.003 c 0.013 0 0.024 -0.006 0.037 -0.007 c 2.792 -0.02 5.659 -1.534 8.761 -4.636 c 0.188 -0.188 0.293 -0.442 0.293 -0.707 c 0 -0.765 -0.024 -1.53 -0.074 -2.293 c 0.431 0.573 0.759 1.208 0.979 1.895 l 1.348 4.19 c 0.428 1.333 0.481 2.757 0.153 4.119 l -0.851 3.527 c -0.059 0.24 -0.025 0.493 0.093 0.711 l 6.28 11.6 c 0.263 0.485 0.869 0.665 1.355 0.402 C 89.962 67.569 90.142 66.963 89.879 66.476 z M 29.28 49.027 c 5.509 0 9.991 4.482 9.991 9.992 v 9.461 c -7.047 -1.614 -13.123 -6.167 -16.657 -12.696 c 0.367 -0.585 0.685 -1.203 0.907 -1.869 c 0.028 -0.084 0.045 -0.173 0.05 -0.262 l 0.254 -4.627 H 29.28 z M 72.148 60.146 l 0.589 1.774 C 66.563 71.295 56.235 76.886 45 76.886 c -11.236 0 -21.563 -5.59 -27.737 -14.965 l 0.589 -1.774 l 2.689 -2.057 c 0.256 -0.195 0.485 -0.416 0.716 -0.636 c 4.076 7.03 10.944 11.803 18.803 13.226 c 0.012 0.003 0.022 0.01 0.034 0.012 c 0.057 0.01 0.114 0.013 0.171 0.023 c 0.668 0.116 1.343 0.208 2.024 0.274 c 0.137 0.014 0.272 0.031 0.409 0.042 c 0.762 0.063 1.528 0.105 2.302 0.105 c 0.774 0 1.541 -0.042 2.302 -0.105 c 0.137 -0.012 0.273 -0.029 0.41 -0.043 c 0.682 -0.067 1.357 -0.159 2.025 -0.274 c 0.056 -0.01 0.113 -0.013 0.169 -0.023 c 0.012 -0.002 0.021 -0.01 0.033 -0.012 c 7.86 -1.423 14.728 -6.196 18.804 -13.226 c 0.23 0.219 0.459 0.44 0.714 0.635 L 72.148 60.146 z M 66.429 53.654 c 0.005 0.089 0.021 0.178 0.05 0.262 c 0.222 0.666 0.54 1.284 0.907 1.869 c -3.534 6.529 -9.61 11.082 -16.657 12.696 v -9.461 c 0 -5.51 4.482 -9.992 9.991 -9.992 h 5.455 L 66.429 53.654 z M 67.121 47.027 H 60.72 c -6.612 0 -11.991 5.38 -11.991 11.992 v 9.84 c -2.496 0.369 -4.961 0.369 -7.457 0 v -9.84 c 0 -6.612 -5.379 -11.992 -11.991 -11.992 H 22.88 h -3.097 c -0.029 -0.221 -0.059 -0.443 -0.082 -0.665 c -0.029 -0.27 -0.06 -0.539 -0.08 -0.809 c -0.045 -0.623 -0.077 -1.248 -0.077 -1.873 c 0 -0.624 0.03 -1.249 0.076 -1.875 c 0.008 -0.108 0.016 -0.217 0.025 -0.325 c 0.054 -0.623 0.128 -1.246 0.227 -1.865 c 0.002 -0.015 0.006 -0.03 0.008 -0.045 h 5.101 c 5.394 0 10.983 -1.298 16.614 -3.857 c 2.132 -0.968 4.678 -0.969 6.808 0 c 5.632 2.56 11.222 3.857 16.615 3.857 h 5.102 c 0.002 0.009 0.003 0.019 0.005 0.028 c 0.102 0.629 0.176 1.26 0.231 1.892 c 0.009 0.103 0.016 0.206 0.024 0.31 c 0.047 0.628 0.077 1.255 0.077 1.88 c 0 0.624 -0.031 1.249 -0.077 1.872 c -0.02 0.271 -0.052 0.542 -0.081 0.813 c -0.023 0.221 -0.053 0.441 -0.082 0.661 H 67.121 z M 20.29 37.571 C 23.034 26.476 33.069 18.224 45 18.224 c 11.931 0 21.966 8.252 24.711 19.347 h -4.692 c -5.105 0 -10.417 -1.237 -15.787 -3.678 c -2.647 -1.204 -5.811 -1.205 -8.463 0 c -5.369 2.44 -10.681 3.678 -15.787 3.678 H 20.29 z M 72.247 46.898 c 0.125 -1.067 0.21 -2.141 0.21 -3.218 c 0 -0.449 -0.012 -0.898 -0.034 -1.349 c -0.016 -0.339 -0.045 -0.674 -0.074 -1.009 c -0.009 -0.106 -0.014 -0.212 -0.024 -0.318 c -0.037 -0.384 -0.086 -0.764 -0.139 -1.143 c -0.009 -0.062 -0.015 -0.123 -0.024 -0.185 c -0.052 -0.357 -0.115 -0.709 -0.181 -1.061 c -0.015 -0.079 -0.025 -0.158 -0.04 -0.237 c -0.001 -0.003 -0.003 -0.006 -0.004 -0.01 C 69.455 25.763 58.322 16.224 45 16.224 c -13.322 0 -24.453 9.538 -26.936 22.143 c -0.001 0.004 -0.004 0.008 -0.005 0.012 c -0.019 0.099 -0.033 0.199 -0.051 0.299 c -0.061 0.327 -0.12 0.655 -0.168 0.986 c -0.014 0.094 -0.023 0.189 -0.036 0.283 c -0.048 0.348 -0.093 0.697 -0.128 1.049 c -0.014 0.138 -0.02 0.275 -0.032 0.413 c -0.025 0.306 -0.052 0.611 -0.067 0.92 c -0.022 0.451 -0.034 0.902 -0.034 1.353 c 0 1.077 0.085 2.151 0.209 3.218 c -1.838 -0.359 -3.794 -1.548 -5.943 -3.634 c 0.021 -1.624 0.158 -3.249 0.411 -4.837 c 0.003 -0.022 -0.002 -0.043 0 -0.064 C 14.82 22.201 28.596 10.476 45 10.476 c 16.405 0 30.18 11.725 32.78 27.888 c 0.002 0.021 -0.004 0.042 0 0.063 c 0.252 1.589 0.391 3.214 0.41 4.837 C 76.041 45.35 74.084 46.539 72.247 46.898 z" style="stroke: none; stroke-width: 1; stroke-dasharray: none; stroke-linecap: butt; stroke-linejoin: miter; stroke-miterlimit: 10; fill: rgb(205,33,50); fill-rule: nonzero; opacity: 1;" transform=" matrix(1 0 0 1 0 0) " stroke-linecap="round" />
	<path d="M 45 37.921 c -3.176 0 -5.76 2.584 -5.76 5.76 s 2.584 5.76 5.76 5.76 s 5.76 -2.584 5.76 -5.76 S 48.176 37.921 45 37.921 z M 45 47.44 c -2.073 0 -3.76 -1.687 -3.76 -3.76 s 1.687 -3.76 3.76 -3.76 s 3.76 1.687 3.76 3.76 S 47.073 47.44 45 47.44 z" style="stroke: none; stroke-width: 1; stroke-dasharray: none; stroke-linecap: butt; stroke-linejoin: miter; stroke-miterlimit: 10; fill: rgb(205,33,50); fill-rule: nonzero; opacity: 1;" transform=" matrix(1 0 0 1 0 0) " stroke-linecap="round" />
</g>
</svg>