<svg xmlns="http://www.w3.org/2000/svg" xmlns:xlink="http://www.w3.org/1999/xlink" version="1.1" width="256" height="256" viewBox="0 0 256 256" xml:space="preserve">

<defs>
</defs>
<g style="stroke: none; stroke-width: 0; stroke-dasharray: none; stroke-linecap: butt; stroke-linejoin: miter; stroke-miterlimit: 10; fill: none; fill-rule: nonzero; opacity: 1;" transform="translate(13.6466926070039 13.6466926070039) scale(2.53 2.53)" >
	<path d="M 68.934 19.874 c -3.781 0 -7.196 -2.125 -8.878 -5.467 H 29.944 c -1.682 3.342 -5.096 5.467 -8.877 5.467 c -3.777 0 -7.179 -2.104 -8.878 -5.49 c -0.156 -0.31 -0.14 -0.679 0.042 -0.974 c 0.182 -0.295 0.504 -0.475 0.851 -0.475 h 5.975 c 1.653 0 2.998 -1.345 2.998 -2.998 s -1.345 -2.998 -2.998 -2.998 h -5.975 c -0.347 0 -0.669 -0.18 -0.851 -0.475 c -0.182 -0.295 -0.198 -0.664 -0.042 -0.973 C 13.888 2.104 17.29 0 21.066 0 c 3.781 0 7.196 2.125 8.877 5.467 h 30.112 C 61.737 2.125 65.152 0 68.934 0 c 3.776 0 7.179 2.104 8.878 5.49 c 0.156 0.31 0.14 0.679 -0.043 0.974 c -0.182 0.295 -0.504 0.475 -0.851 0.475 h -5.976 c -1.653 0 -2.998 1.345 -2.998 2.998 s 1.345 2.998 2.998 2.998 h 5.976 c 0.347 0 0.669 0.18 0.852 0.475 c 0.182 0.295 0.198 0.664 0.042 0.974 C 76.111 17.77 72.71 19.874 68.934 19.874 z M 29.305 12.407 h 31.391 c 0.402 0 0.766 0.241 0.922 0.611 c 1.243 2.95 4.115 4.856 7.316 4.856 c 2.433 0 4.672 -1.094 6.159 -2.939 h -4.15 c -2.756 0 -4.998 -2.242 -4.998 -4.998 s 2.242 -4.998 4.998 -4.998 h 4.15 C 73.605 3.095 71.366 2 68.934 2 c -3.201 0 -6.073 1.906 -7.316 4.856 c -0.156 0.371 -0.52 0.611 -0.922 0.611 H 29.305 c -0.402 0 -0.765 -0.241 -0.921 -0.611 C 27.139 3.906 24.267 2 21.066 2 c -2.434 0 -4.672 1.095 -6.16 2.939 h 4.15 c 2.756 0 4.998 2.242 4.998 4.998 s -2.242 4.998 -4.998 4.998 h -4.15 c 1.487 1.844 3.726 2.939 6.159 2.939 c 3.201 0 6.073 -1.906 7.317 -4.856 C 28.54 12.647 28.902 12.407 29.305 12.407 z" style="stroke: none; stroke-width: 1; stroke-dasharray: none; stroke-linecap: butt; stroke-linejoin: miter; stroke-miterlimit: 10; fill: rgb(205,33,50); fill-rule: nonzero; opacity: 1;" transform=" matrix(1 0 0 1 0 0) " stroke-linecap="round" />
	<path d="M 72.071 49.3 c -17.962 -0.955 -36.179 -0.955 -54.143 0 l -0.106 -1.998 c 18.034 -0.956 36.321 -0.956 54.354 0 L 72.071 49.3 z" style="stroke: none; stroke-width: 1; stroke-dasharray: none; stroke-linecap: butt; stroke-linejoin: miter; stroke-miterlimit: 10; fill: rgb(205,33,50); fill-rule: nonzero; opacity: 1;" transform=" matrix(1 0 0 1 0 0) " stroke-linecap="round" />
	<path d="M 22.469 90 H 11.987 c -1.862 0 -3.377 -1.515 -3.377 -3.377 V 76.009 c 0 -0.553 0.448 -1 1 -1 s 1 0.447 1 1 v 10.614 c 0 0.759 0.618 1.377 1.377 1.377 h 10.482 c 0.759 0 1.377 -0.618 1.377 -1.377 v -5.526 c 0 -0.553 0.448 -1 1 -1 s 1 0.447 1 1 v 5.526 C 25.846 88.485 24.331 90 22.469 90 z" style="stroke: none; stroke-width: 1; stroke-dasharray: none; stroke-linecap: butt; stroke-linejoin: miter; stroke-miterlimit: 10; fill: rgb(205,33,50); fill-rule: nonzero; opacity: 1;" transform=" matrix(1 0 0 1 0 0) " stroke-linecap="round" />
	<path d="M 78.013 90 H 67.53 c -1.862 0 -3.377 -1.515 -3.377 -3.377 v -5.304 c 0 -0.553 0.447 -1 1 -1 s 1 0.447 1 1 v 5.304 c 0 0.759 0.618 1.377 1.377 1.377 h 10.482 c 0.759 0 1.377 -0.618 1.377 -1.377 V 76 c 0 -0.553 0.447 -1 1 -1 s 1 0.447 1 1 v 10.623 C 81.39 88.485 79.875 90 78.013 90 z" style="stroke: none; stroke-width: 1; stroke-dasharray: none; stroke-linecap: butt; stroke-linejoin: miter; stroke-miterlimit: 10; fill: rgb(205,33,50); fill-rule: nonzero; opacity: 1;" transform=" matrix(1 0 0 1 0 0) " stroke-linecap="round" />
	<path d="M 73.268 82.097 H 16.732 c -4.524 0 -8.264 -3.539 -8.514 -8.056 l -0.434 -7.843 c -0.294 -5.326 1.659 -10.584 5.358 -14.425 l 3.876 -4.025 l 4.667 -11.657 c 0.834 -2.085 2.72 -3.542 4.921 -3.803 c 12.205 -1.442 24.58 -1.442 36.784 0 c 2.202 0.261 4.088 1.718 4.923 3.803 l 4.665 11.657 l 3.877 4.025 c 3.699 3.841 5.652 9.099 5.357 14.425 l -0.434 7.843 C 81.531 78.558 77.791 82.097 73.268 82.097 z M 45 33.206 c -6.067 0 -12.132 0.356 -18.158 1.068 c -1.473 0.174 -2.737 1.155 -3.3 2.56 l -4.811 12.02 l -4.147 4.307 c -3.315 3.442 -5.065 8.154 -4.802 12.928 l 0.434 7.842 c 0.191 3.458 3.054 6.167 6.517 6.167 h 56.535 c 3.463 0 6.325 -2.709 6.517 -6.167 l 0.434 -7.843 c 0.264 -4.772 -1.486 -9.483 -4.803 -12.927 l -4.146 -4.307 l -0.073 -0.181 l -4.738 -11.839 c -0.562 -1.405 -1.826 -2.386 -3.3 -2.56 C 57.134 33.562 51.065 33.206 45 33.206 z" style="stroke: none; stroke-width: 1; stroke-dasharray: none; stroke-linecap: butt; stroke-linejoin: miter; stroke-miterlimit: 10; fill: rgb(205,33,50); fill-rule: nonzero; opacity: 1;" transform=" matrix(1 0 0 1 0 0) " stroke-linecap="round" />
	<path d="M 20.997 75.67 h -2.994 c -0.552 0 -1 -0.447 -1 -1 s 0.448 -1 1 -1 h 2.994 c 0.552 0 1 0.447 1 1 S 21.549 75.67 20.997 75.67 z" style="stroke: none; stroke-width: 1; stroke-dasharray: none; stroke-linecap: butt; stroke-linejoin: miter; stroke-miterlimit: 10; fill: rgb(205,33,50); fill-rule: nonzero; opacity: 1;" transform=" matrix(1 0 0 1 0 0) " stroke-linecap="round" />
	<path d="M 72.003 75.67 h -3.006 c -0.553 0 -1 -0.447 -1 -1 s 0.447 -1 1 -1 h 3.006 c 0.553 0 1 0.447 1 1 S 72.556 75.67 72.003 75.67 z" style="stroke: none; stroke-width: 1; stroke-dasharray: none; stroke-linecap: butt; stroke-linejoin: miter; stroke-miterlimit: 10; fill: rgb(205,33,50); fill-rule: nonzero; opacity: 1;" transform=" matrix(1 0 0 1 0 0) " stroke-linecap="round" />
	<path d="M 55.361 76.109 H 34.639 c -1.279 0 -2.429 -0.711 -3.001 -1.854 l -0.645 -1.29 c -0.523 -1.048 -0.469 -2.269 0.147 -3.265 c 0.616 -0.996 1.683 -1.591 2.854 -1.591 h 22.012 c 1.172 0 2.238 0.595 2.854 1.591 c 0.615 0.996 0.67 2.217 0.146 3.265 l -0.645 1.29 C 57.789 75.398 56.64 76.109 55.361 76.109 z M 33.994 70.109 c -0.48 0 -0.9 0.234 -1.152 0.643 s -0.274 0.889 -0.06 1.318 l 0.645 1.29 c 0.231 0.462 0.695 0.749 1.212 0.749 h 20.722 c 0.517 0 0.98 -0.287 1.212 -0.749 l 0.645 -1.29 c 0.215 -0.43 0.193 -0.91 -0.059 -1.318 c -0.253 -0.408 -0.673 -0.643 -1.153 -0.643 H 33.994 z" style="stroke: none; stroke-width: 1; stroke-dasharray: none; stroke-linecap: butt; stroke-linejoin: miter; stroke-miterlimit: 10; fill: rgb(205,33,50); fill-rule: nonzero; opacity: 1;" transform=" matrix(1 0 0 1 0 0) " stroke-linecap="round" />
	<path d="M 24.401 70.109 h -7.802 c -2.168 0 -3.932 -1.765 -3.932 -3.933 v -2.07 c 0 -1.23 0.56 -2.366 1.535 -3.117 c 0.976 -0.75 2.217 -1 3.406 -0.684 l 7.801 2.07 c 1.722 0.458 2.924 2.021 2.924 3.801 C 28.333 68.345 26.569 70.109 24.401 70.109 z M 16.594 62.173 c -0.419 0 -0.83 0.138 -1.173 0.402 c -0.479 0.368 -0.754 0.927 -0.754 1.531 v 2.07 c 0 1.065 0.867 1.933 1.932 1.933 h 7.802 c 1.065 0 1.932 -0.867 1.932 -1.933 c 0 -0.875 -0.591 -1.643 -1.437 -1.867 l -7.801 -2.07 C 16.929 62.195 16.761 62.173 16.594 62.173 z" style="stroke: none; stroke-width: 1; stroke-dasharray: none; stroke-linecap: butt; stroke-linejoin: miter; stroke-miterlimit: 10; fill: rgb(205,33,50); fill-rule: nonzero; opacity: 1;" transform=" matrix(1 0 0 1 0 0) " stroke-linecap="round" />
	<path d="M 73.4 70.109 H 65.6 c -2.168 0 -3.933 -1.765 -3.933 -3.933 c 0 -1.78 1.202 -3.343 2.923 -3.801 l 7.802 -2.07 c 1.188 -0.318 2.431 -0.067 3.406 0.684 s 1.535 1.887 1.535 3.117 v 2.07 C 77.333 68.345 75.568 70.109 73.4 70.109 z M 73.405 62.173 c -0.166 0 -0.334 0.022 -0.5 0.066 l -7.802 2.07 c -0.846 0.225 -1.437 0.992 -1.437 1.867 c 0 1.065 0.867 1.933 1.933 1.933 H 73.4 c 1.065 0 1.933 -0.867 1.933 -1.933 v -2.07 c 0 -0.604 -0.275 -1.163 -0.755 -1.531 C 74.235 62.311 73.825 62.173 73.405 62.173 z" style="stroke: none; stroke-width: 1; stroke-dasharray: none; stroke-linecap: butt; stroke-linejoin: miter; stroke-miterlimit: 10; fill: rgb(205,33,50); fill-rule: nonzero; opacity: 1;" transform=" matrix(1 0 0 1 0 0) " stroke-linecap="round" />
</g>
</svg>