<svg xmlns="http://www.w3.org/2000/svg" width="432" height="408" viewBox="0 0 432 408" version="1.1"><path d="M 176 37.327 C 139.634 58.177, 133.886 62.902, 138.580 68.088 C 141.341 71.139, 143.112 70.551, 162.951 60 C 184.803 48.379, 184.031 48.492, 197.018 55.009 C 210.383 61.716, 210.095 62, 189.934 62 C 171.478 62, 169.498 62.456, 168.515 66.933 C 167.004 73.812, 169.149 74.782, 194 78.458 C 203.625 79.882, 213.145 81.294, 215.156 81.596 C 217.167 81.897, 224.350 81.188, 231.118 80.020 C 244.506 77.709, 245.735 77.776, 261.988 81.692 C 324.805 96.827, 365.160 165.531, 349.055 229.922 C 345.943 242.364, 347.203 242.119, 351.227 229.500 C 376.892 149.035, 324.116 63.959, 240.858 51.583 C 233.306 50.461, 229.702 49.113, 213.822 41.474 C 189.945 29.988, 188.984 29.883, 176 37.327 M 167 59.795 C 150.779 68.353, 148.688 70.139, 152.258 72.391 C 154.403 73.744, 166.661 67.612, 167.584 64.723 C 168.957 60.426, 172.187 59.697, 187.533 60.218 C 204.490 60.793, 204.574 60.722, 193.485 55.223 C 183.115 50.080, 186.532 49.490, 167 59.795 M 166.703 117.421 C 156.219 121.219, 153.370 124.681, 140.662 149.065 C 134.007 161.834, 132.301 165.901, 133.215 166.815 C 134.911 168.511, 288.073 168.527, 289.769 166.831 C 293.200 163.400, 269.239 124.109, 260.899 119.490 C 254.615 116.010, 175.402 114.270, 166.703 117.421 M 109.329 156.458 C 103.327 159.068, 102.961 165.294, 108.657 167.890 C 112.908 169.827, 122.372 169.282, 125.365 166.927 C 133.890 160.222, 120.608 151.551, 109.329 156.458 M 300.501 156.066 C 296.990 157.113, 295 159.484, 295 162.619 C 295 170.301, 314.535 171.706, 317.924 164.267 C 320.805 157.945, 310.487 153.089, 300.501 156.066 M 71.627 171.750 C 45.812 251.642, 98.633 336.816, 181.863 349.507 C 190.084 350.761, 193.381 351.968, 208.863 359.390 C 235.445 372.133, 233.287 372.138, 254.528 359.282 C 288.718 338.589, 289.185 338.177, 284.420 332.912 C 281.663 329.865, 279.915 330.444, 260 341 C 238.065 352.626, 238.947 352.497, 225.982 345.991 C 212.644 339.297, 212.879 339.092, 234.237 338.773 C 254.356 338.472, 256.218 337.702, 254.396 330.441 C 252.773 323.976, 210.990 317.705, 191.616 321.019 C 119.103 333.422, 51.864 243.610, 75.370 165.750 C 78.293 156.069, 74.975 161.386, 71.627 171.750 M 131.462 173.352 C 106.631 184.980, 107.851 246.939, 133.059 254.425 C 141.050 256.798, 281.950 256.798, 289.941 254.425 C 314.390 247.164, 316.366 186.416, 292.568 173.678 C 285.862 170.088, 139.066 169.792, 131.462 173.352 M 133 182.845 C 133 189.816, 136.546 190.120, 214 189.791 C 289.481 189.470, 288.901 189.521, 289.820 183.199 C 290.222 180.430, 288.339 180.360, 286.150 183.064 C 281.474 188.837, 141.581 188.799, 136.840 183.023 C 134.768 180.499, 133 180.417, 133 182.845 M 124.073 193.635 C 116.946 202.695, 127.253 215.649, 142.446 216.726 C 157.393 217.786, 155.375 208.721, 137.707 195.439 C 130.721 190.187, 127.155 189.716, 124.073 193.635 M 285.360 195.341 C 268.611 207.749, 265.700 217, 278.544 217 C 294.398 217, 307.117 202.026, 298.545 193.455 C 295.051 189.960, 292.044 190.390, 285.360 195.341 M 167 227.978 C 156.366 229.132, 145.944 239.246, 149.485 244.976 C 150.336 246.353, 272.635 246.400, 273.486 245.023 C 275.662 241.502, 269.973 232.982, 263.141 229.532 C 259.649 227.769, 180.688 226.492, 167 227.978 M 119.151 259.928 C 119.901 279.094, 148 283.591, 148 264.545 C 148 259, 148 259, 140.750 258.990 C 133.167 258.980, 125.083 256.232, 122.128 252.659 C 119.424 249.390, 118.798 250.918, 119.151 259.928 M 300.863 252.670 C 297.917 256.232, 289.824 258.980, 282.250 258.990 C 275 259, 275 259, 275 264.545 C 275 277.498, 299.485 280.716, 302.956 268.221 C 305.348 259.605, 303.918 248.977, 300.863 252.670 M 262.500 331.148 C 259.200 332.877, 256.321 334.763, 256.102 335.339 C 254.115 340.571, 251.563 341.264, 235.924 340.819 C 218.430 340.322, 218.570 340.209, 229.520 346 C 239.245 351.144, 278.247 335.647, 271.800 329.200 C 270.067 327.467, 269.166 327.655, 262.500 331.148" stroke="none" fill="#cd2132" fill-rule="evenodd"/></svg>