<svg id="SvgjsSvg1017" width="288" height="288" xmlns="http://www.w3.org/2000/svg" version="1.1" xmlns:xlink="http://www.w3.org/1999/xlink" xmlns:svgjs="http://svgjs.com/svgjs"><defs id="SvgjsDefs1018"></defs><g id="SvgjsG1019"><svg xmlns="http://www.w3.org/2000/svg" version="1.0" viewBox="0 0 512 512" width="288" height="288"><g transform="matrix(.1 0 0 -.1 0 512)" fill="#cd2132" class="color000 svgShape"><path d="M68 4373c-14-9-36-33-47-54-21-37-21-42-21-1028 0-1088-3-1031 61-1085l34-29 250 7c138 3 337 9 444 13l194 6-9-554c-13-805-13-812 12-846 12-15 36-38 54-51 32-21 39-22 309-22 307 0 324 3 367 68 17 25 148 409 300 879 5 15 4 16-5 3-9-13-11-13-11 0 0 8 5 22 10 30 9 13 10 13 11 0 0-8 5-2 9 14 5 16 6 34 3 39-3 6-1 7 4 4 6-4 13 2 16 13 3 11 2 20-3 20-4 0-5 12-2 27 4 21 7 24 11 10 4-10 35 70 81 205l74 223-3 705c-2 422 2 820 9 991 13 325 10 349-46 398l-36 32-321-6c-409-7-645-7-1242 0-439 5-482 4-507-12zM2939 4351c-27-26-39-48-39-67-1-16-1-473-1-1016-1-1082-4-1022 59-1066 33-24 98-34 94-14-1 9 85 12 408 12l411 0-1-690c-2-690 0-733 31-714 5 3 6-1 3-9-3-10 5-16 26-21 17-3 29-10 25-16-8-13-37-11 284-15 164-2 284 1 300 6 67 26 72 38 237 533 86 259 157 483 156 499 0 15 3 25 8 22 4-3 6 3 3 13-2 11 3 26 12 35 9 9 49 117 90 239l75 223 0 989c0 985 0 988-21 1026-38 67-51 70-283 70-131 0-206-4-206-10 0-7-202-10-585-10-383 0-585 3-585 10 0 6-84 10-231 10l-231 0-39-39z" fill="#cd2132" class="color000 svgShape"></path></g></svg></g></svg>