<?xml version="1.0" standalone="no"?>
<!DOCTYPE svg PUBLIC "-//W3C//DTD SVG 20010904//EN"
 "http://www.w3.org/TR/2001/REC-SVG-20010904/DTD/svg10.dtd">
<svg version="1.0" xmlns="http://www.w3.org/2000/svg"
 width="442.000000pt" height="193.000000pt" viewBox="0 0 442.000000 193.000000"
 preserveAspectRatio="xMidYMid meet">

<g transform="translate(0.000000,193.000000) scale(0.100000,-0.100000)"
fill="#CD2132" stroke="none">
<path d="M1880 1754 c-25 -2 -103 -8 -175 -14 -177 -14 -342 -39 -390 -60 -62
-27 -111 -72 -182 -166 -156 -207 -275 -454 -413 -859 -78 -228 -116 -307
-217 -449 -35 -49 -63 -94 -63 -99 0 -22 133 174 176 258 25 50 52 101 59 115
8 14 28 70 45 125 30 98 99 290 125 350 8 17 26 59 41 95 68 167 155 321 255
456 109 146 160 174 361 199 218 26 406 35 753 35 347 0 535 -9 753 -35 201
-25 250 -52 360 -198 101 -135 187 -289 256 -457 15 -36 33 -78 41 -95 26 -60
95 -252 125 -350 17 -55 37 -111 45 -125 8 -14 32 -61 53 -105 36 -74 133
-220 169 -255 25 -23 9 2 -59 97 -32 45 -72 110 -89 145 -16 35 -37 75 -45 90
-8 15 -41 105 -73 200 -139 409 -258 657 -415 863 -130 171 -164 185 -506 221
-146 15 -868 28 -990 18z"/>
<path d="M1790 1619 c-205 -9 -407 -32 -488 -55 -70 -20 -115 -62 -200 -187
-108 -159 -171 -295 -250 -542 -80 -249 -122 -387 -122 -400 0 -11 324 0 645
24 444 33 587 36 683 16 90 -18 141 -16 82 3 -27 9 48 11 340 8 395 -5 781
-27 890 -51 73 -17 93 -19 87 -7 -3 4 69 5 159 3 90 -1 164 1 164 5 0 12 -43
153 -122 399 -79 245 -137 373 -247 537 -85 127 -132 172 -203 192 -190 54
-848 80 -1418 55z m486 -7 c8 -4 10 -26 7 -60 -5 -50 -7 -53 -32 -50 -24 3
-26 6 -23 48 4 69 15 84 48 62z m-58 -19 c-3 -15 -17 -19 -78 -23 l-75 -5 73
-8 c72 -8 74 -9 68 -33 -5 -19 -2 -26 17 -33 13 -5 35 -7 50 -4 22 4 27 11 27
34 l0 29 73 1 c39 1 59 4 42 6 -113 13 -115 14 -115 35 0 21 1 21 278 15 407
-9 618 -34 693 -84 45 -29 177 -219 240 -346 23 -44 61 -136 84 -202 50 -141
165 -506 165 -524 0 -9 -40 -11 -177 -6 -168 7 -191 10 -408 60 -126 30 -258
59 -292 66 -35 7 -63 16 -63 19 0 3 -16 4 -36 2 -26 -3 -35 -1 -30 7 19 30
259 1 278 -34 14 -24 26 -18 20 10 -10 52 65 86 112 52 20 -15 25 -59 11 -91
-6 -14 -5 -17 4 -12 6 4 17 4 24 -2 7 -5 20 -12 30 -15 15 -6 16 -4 7 13 -5
10 -15 22 -20 25 -6 3 -10 20 -10 36 0 19 -10 39 -26 56 -22 22 -31 25 -69 20
-29 -4 -58 -1 -87 10 -66 25 -260 22 -361 -5 -43 -12 -90 -19 -105 -16 -38 7
-96 -30 -89 -56 5 -18 0 -20 -52 -20 l-57 0 4 39 c2 21 -1 42 -7 45 -7 5 -11
-9 -11 -42 l0 -50 -46 -7 c-85 -12 -95 -24 -21 -24 37 -1 67 -5 67 -11 0 -11
-83 -16 -210 -12 l-95 3 3 182 c2 100 0 197 -3 215 -14 77 -20 18 -17 -183 l3
-215 -26 0 c-14 0 -121 16 -238 36 -257 43 -439 55 -487 30 -61 -30 -60 -33
-60 163 0 175 1 180 22 195 24 17 13 22 -12 6 -12 -7 -16 -45 -20 -197 l-5
-188 -60 -7 c-50 -6 -157 -28 -214 -45 -40 -11 9 -13 105 -3 60 5 233 10 384
10 151 0 291 4 310 8 19 4 60 3 90 -2 52 -10 48 -11 -90 -18 -80 -4 -235 -14
-345 -23 -272 -21 -625 -38 -633 -31 -15 16 182 604 244 728 63 125 196 318
242 350 56 39 176 58 502 81 25 2 143 4 263 5 203 2 218 1 215 -15z m763 -939
c70 -16 78 -21 58 -41 -7 -7 -29 -6 -72 5 -69 16 -239 11 -261 -7 -8 -7 -36
-11 -64 -10 -98 4 -28 38 128 62 59 10 146 6 211 -9z m-410 -40 c17 -21 -3
-34 -54 -34 -44 0 -46 17 -6 37 32 17 44 16 60 -3z m49 -34 c0 -5 -4 -10 -9
-10 -6 0 -13 5 -16 10 -3 6 1 10 9 10 9 0 16 -4 16 -10z m213 -17 c48 -8 86
-17 84 -19 -2 -3 -44 2 -92 11 -48 8 -110 15 -136 15 -29 0 -49 5 -49 11 0 12
49 8 193 -18z m-1520 0 c-7 -2 -19 -2 -25 0 -7 3 -2 5 12 5 14 0 19 -2 13 -5z
m307 -13 c31 -8 29 -9 -15 -3 -27 3 -97 10 -155 14 l-105 7 120 -4 c66 -2 136
-8 155 -14z m1130 1 c25 -4 -43 -6 -150 -3 -107 3 -197 6 -199 8 -8 7 304 2
349 -5z m-1385 -11 c-55 -4 -129 -7 -165 -7 l-65 1 70 6 c39 4 113 7 165 7
l95 0 -100 -7z m1602 -6 c-3 -3 -12 -4 -19 -1 -8 3 -5 6 6 6 11 1 17 -2 13 -5z
m-128 -19 c112 -8 208 -12 212 -9 7 4 65 -7 154 -30 11 -3 -8 -3 -43 -1 -34 3
-125 8 -202 11 -77 4 -140 10 -140 13 0 3 -38 5 -86 3 -58 -2 -90 0 -100 9
-13 10 -17 10 -25 -2 -6 -9 -12 -10 -16 -4 -9 12 -112 13 -130 2 -6 -4 -14 -3
-18 3 -4 6 -12 7 -18 3 -18 -11 -60 -8 -65 5 -5 17 218 15 477 -3z"/>
<path d="M2044 1549 c-3 -6 -9 -39 -11 -73 l-5 -62 210 -3 c202 -3 211 -2 221
18 14 25 15 134 1 126 -5 -3 -10 -33 -10 -66 l0 -59 -201 0 -202 0 5 65 c6 66
5 74 -8 54z"/>
<path d="M2798 1546 c-20 -7 -59 -27 -86 -45 -27 -17 -54 -31 -61 -31 -28 0
-92 -43 -125 -83 -65 -79 -81 -128 -81 -247 0 -121 12 -154 78 -220 47 -46
159 -106 178 -95 7 5 -11 18 -49 35 -65 30 -145 97 -168 142 -87 169 35 458
195 458 16 0 31 6 34 13 2 8 27 12 78 12 89 0 163 -30 231 -94 70 -64 101
-130 106 -227 4 -72 1 -89 -21 -138 -14 -31 -21 -56 -16 -56 6 0 22 25 36 56
22 48 25 66 21 137 -6 144 -77 249 -208 311 l-65 30 53 12 c30 7 56 15 59 18
11 11 -41 6 -97 -8 -67 -17 -150 -29 -150 -22 0 3 26 13 58 22 31 10 61 21 67
26 14 12 -25 9 -67 -6z"/>
<path d="M1269 1469 c-174 -341 -232 -482 -245 -587 -3 -30 9 -19 13 11 11 75
77 236 189 459 52 105 93 193 90 195 -3 3 -24 -33 -47 -78z"/>
<path d="M1317 1493 c-61 -120 -182 -396 -208 -472 -31 -90 -33 -125 -4 -44
32 87 122 296 184 427 34 71 59 131 57 133 -3 3 -16 -17 -29 -44z"/>
<path d="M1378 1533 c12 -2 30 -2 40 0 9 3 -1 5 -23 4 -22 0 -30 -2 -17 -4z"/>
<path d="M1512 1533 c-34 -3 -45 -9 -57 -33 -19 -38 -19 -64 1 -28 25 48 39
50 308 50 152 -1 243 2 231 8 -19 8 -395 11 -483 3z"/>
<path d="M3050 1530 c0 -13 40 -13 60 0 11 7 5 10 -22 10 -21 0 -38 -4 -38
-10z"/>
<path d="M3150 1531 c0 -4 24 -59 54 -122 29 -63 75 -167 101 -231 26 -65 52
-118 56 -118 10 0 -2 33 -83 224 -83 194 -128 282 -128 247z"/>
<path d="M2553 1523 c26 -2 68 -2 95 0 26 2 4 3 -48 3 -52 0 -74 -1 -47 -3z"/>
<path d="M3226 1438 c20 -46 63 -147 96 -225 34 -79 65 -143 69 -143 10 0 10
2 -91 235 -45 105 -84 196 -87 203 -3 6 -9 12 -14 12 -4 0 8 -37 27 -82z"/>
<path d="M2880 1412 c0 -10 44 -32 63 -32 17 0 -14 27 -40 35 -13 3 -23 2 -23
-3z"/>
<path d="M2658 1373 c-15 -10 -30 -23 -33 -31 -3 -8 5 -6 23 6 15 10 36 24 47
30 14 8 15 11 5 11 -8 0 -27 -7 -42 -16z"/>
<path d="M1783 1316 c-131 -54 -340 -161 -453 -231 -104 -66 -280 -193 -280
-202 0 -3 21 11 48 31 54 41 269 186 275 186 3 0 8 -10 12 -22 4 -15 8 -18 12
-10 3 7 0 19 -7 27 -9 11 23 30 176 107 125 62 189 89 191 81 5 -15 43 -18 43
-3 0 6 -10 10 -22 10 -14 1 -1 10 36 25 33 14 62 27 64 30 12 11 -17 2 -95
-29z"/>
<path d="M2830 1281 c-14 -26 -13 -78 2 -87 15 -9 48 32 48 60 0 22 -17 46
-32 46 -4 0 -12 -9 -18 -19z"/>
<path d="M1445 1280 c-40 -6 -30 -7 50 -8 55 0 120 3 145 7 37 7 28 8 -50 8
-52 0 -117 -3 -145 -7z"/>
<path d="M2685 1260 c-9 -40 2 -70 25 -70 23 0 35 37 26 75 -9 36 -43 33 -51
-5z"/>
<path d="M1826 1234 c9 -32 12 -75 9 -133 -3 -57 -2 -77 4 -61 13 37 13 185
-1 215 -19 42 -27 28 -12 -21z"/>
<path d="M1361 1254 c0 -11 3 -14 6 -6 3 7 2 16 -1 19 -3 4 -6 -2 -5 -13z"/>
<path d="M1378 1195 c-1 -36 0 -65 5 -65 4 0 7 29 7 65 0 36 -2 65 -4 65 -2 0
-6 -29 -8 -65z"/>
<path d="M1341 1189 c-7 -22 -11 -43 -8 -45 2 -2 9 14 16 37 7 22 11 43 8 45
-2 2 -9 -14 -16 -37z"/>
<path d="M1960 1220 c0 -12 227 -13 285 -1 28 6 -9 9 -122 10 -103 1 -163 -3
-163 -9z"/>
<path d="M2915 1164 c-11 -9 -32 -14 -47 -11 -16 2 -28 0 -28 -5 0 -13 65 -9
86 6 10 8 17 17 14 19 -3 3 -14 -1 -25 -9z"/>
<path d="M2626 1155 c8 -20 48 -29 71 -16 15 9 13 10 -14 11 -17 0 -35 5 -38
10 -10 16 -25 12 -19 -5z"/>
<path d="M1321 1114 c0 -11 3 -14 6 -6 3 7 2 16 -1 19 -3 4 -6 -2 -5 -13z"/>
<path d="M3345 1041 c-164 -52 -382 -128 -555 -194 -166 -63 -393 -158 -388
-162 2 -2 80 27 174 65 118 47 178 66 197 63 25 -5 27 -9 27 -59 0 -30 5 -54
10 -54 6 0 10 25 10 55 0 52 1 55 25 55 35 0 120 34 166 66 50 34 42 45 -8 12
-52 -34 -117 -56 -188 -62 l-60 -6 120 44 c223 82 528 187 557 193 16 3 31 10
34 14 7 11 19 14 -121 -30z"/>
<path d="M2750 1049 c-60 -10 -160 -52 -160 -68 0 -6 23 2 52 17 72 37 222 43
313 13 33 -11 64 -16 68 -12 11 11 -60 39 -115 46 -88 12 -104 12 -158 4z"/>
<path d="M1410 1041 c8 -6 28 -11 43 -11 26 0 28 -2 25 -37 l-3 -38 -100 -6
c-55 -3 67 -5 270 -5 204 0 308 2 232 3 l-138 4 3 37 c3 34 6 38 38 43 19 4
-37 7 -126 8 -89 0 -183 4 -210 7 -36 4 -45 3 -34 -5z m290 -51 l0 -40 -105 0
c-63 0 -105 4 -105 10 0 6 5 10 11 10 7 0 9 10 7 25 -5 26 1 28 145 33 l47 2
0 -40z m26 -38 c-12 -11 -15 5 -8 44 l7 39 3 -39 c2 -21 1 -41 -2 -44z"/>
<path d="M3150 1038 c0 -7 5 -20 10 -28 8 -12 10 -9 10 13 0 15 -4 27 -10 27
-5 0 -10 -6 -10 -12z"/>
<path d="M3400 1036 c0 -2 14 -40 32 -83 17 -43 46 -125 64 -183 36 -114 47
-110 14 5 -26 90 -89 253 -101 260 -5 4 -9 4 -9 1z"/>
<path d="M3372 1020 c3 -8 24 -72 47 -142 41 -123 60 -164 46 -95 -13 57 -74
231 -86 241 -9 8 -11 7 -7 -4z"/>
<path d="M2368 939 c-16 -9 -18 -27 -18 -135 0 -81 4 -123 10 -119 6 4 10 57
10 126 l0 119 46 0 c27 0 43 4 39 10 -8 13 -65 12 -87 -1z"/>
<path d="M3100 930 c0 -6 28 -10 63 -10 116 0 107 15 107 -197 0 -120 3 -182
10 -178 6 4 10 76 10 184 l0 179 -34 16 c-38 18 -156 22 -156 6z"/>
<path d="M1110 821 c-19 -16 -32 -32 -29 -35 3 -3 21 10 39 29 41 43 36 45
-10 6z"/>
<path d="M1052 810 c0 -14 2 -19 5 -12 2 6 2 18 0 25 -3 6 -5 1 -5 -13z"/>
<path d="M3330 826 c0 -1 24 -18 53 -36 40 -25 47 -27 32 -10 -25 27 -85 60
-85 46z"/>
<path d="M3540 680 c0 -5 4 -10 9 -10 4 0 39 -23 76 -51 80 -59 100 -59 24 1
-62 49 -109 75 -109 60z"/>
<path d="M860 594 c-30 -26 -57 -51 -59 -57 -4 -12 87 62 109 88 21 25 8 17
-50 -31z"/>
<path d="M1211 484 c0 -11 3 -14 6 -6 3 7 2 16 -1 19 -3 4 -6 -2 -5 -13z"/>
<path d="M208 629 c-43 -16 -61 -77 -56 -197 3 -100 3 -101 38 -137 19 -20 57
-48 84 -62 56 -29 167 -49 192 -35 12 6 -2 11 -51 16 -81 8 -163 44 -211 92
l-34 35 0 118 c0 99 3 122 18 141 24 30 90 30 167 1 96 -37 210 -69 262 -75
l48 -5 -50 15 c-27 8 -111 35 -185 59 -138 46 -174 51 -222 34z"/>
<path d="M4113 606 c-51 -19 -131 -44 -178 -57 -47 -12 -83 -24 -80 -27 8 -9
125 19 228 54 56 20 117 39 135 44 42 10 99 -5 112 -30 5 -10 10 -71 10 -134
l0 -115 -34 -35 c-48 -48 -130 -84 -211 -92 -49 -5 -63 -10 -51 -16 25 -14
136 6 192 35 27 14 65 42 84 62 35 36 35 37 38 137 6 159 -23 209 -122 208
-17 -1 -72 -16 -123 -34z"/>
<path d="M1208 363 c189 -2 495 -2 680 0 185 1 31 2 -343 2 -374 0 -526 -1
-337 -2z"/>
<path d="M2628 363 c189 -2 495 -2 680 0 185 1 31 2 -343 2 -374 0 -526 -1
-337 -2z"/>
<path d="M651 256 c-28 -46 -51 -88 -51 -92 0 -9 35 43 84 129 15 26 26 47 23
47 -3 0 -28 -38 -56 -84z"/>
<path d="M3826 293 c49 -86 84 -138 84 -129 0 11 -100 176 -107 176 -3 0 8
-21 23 -47z"/>
</g>
</svg>
