<svg xmlns="http://www.w3.org/2000/svg" xmlns:xlink="http://www.w3.org/1999/xlink" version="1.1" width="256" height="256" viewBox="0 0 256 256" xml:space="preserve">

<defs>
</defs>
<g style="stroke: none; stroke-width: 0; stroke-dasharray: none; stroke-linecap: butt; stroke-linejoin: miter; stroke-miterlimit: 10; fill: none; fill-rule: nonzero; opacity: 1;" transform="translate(13.6466926070039 13.6466926070039) scale(2.53 2.53)" >
	<path d="M 75.095 65.053 c -4.807 0 -8.717 -3.91 -8.717 -8.717 s 3.91 -8.717 8.717 -8.717 s 8.717 3.91 8.717 8.717 S 79.901 65.053 75.095 65.053 z M 75.095 50.619 c -3.152 0 -5.717 2.564 -5.717 5.717 s 2.564 5.717 5.717 5.717 s 5.717 -2.564 5.717 -5.717 S 78.247 50.619 75.095 50.619 z" style="stroke: none; stroke-width: 1; stroke-dasharray: none; stroke-linecap: butt; stroke-linejoin: miter; stroke-miterlimit: 10; fill: rgb(205,33,50); fill-rule: nonzero; opacity: 1;" transform=" matrix(1 0 0 1 0 0) " stroke-linecap="round" />
	<path d="M 17.997 65.053 c -4.807 0 -8.717 -3.91 -8.717 -8.717 s 3.91 -8.717 8.717 -8.717 s 8.717 3.91 8.717 8.717 S 22.804 65.053 17.997 65.053 z M 17.997 50.619 c -3.152 0 -5.717 2.564 -5.717 5.717 s 2.564 5.717 5.717 5.717 s 5.717 -2.564 5.717 -5.717 S 21.149 50.619 17.997 50.619 z" style="stroke: none; stroke-width: 1; stroke-dasharray: none; stroke-linecap: butt; stroke-linejoin: miter; stroke-miterlimit: 10; fill: rgb(205,33,50); fill-rule: nonzero; opacity: 1;" transform=" matrix(1 0 0 1 0 0) " stroke-linecap="round" />
	<path d="M 75.09 59.34 c -0.79 0 -1.56 -0.32 -2.12 -0.88 c -0.13 -0.141 -0.26 -0.29 -0.37 -0.46 c -0.109 -0.16 -0.2 -0.34 -0.28 -0.521 c -0.069 -0.18 -0.13 -0.37 -0.17 -0.56 c -0.04 -0.19 -0.05 -0.39 -0.05 -0.58 c 0 -0.2 0.01 -0.4 0.05 -0.59 c 0.04 -0.19 0.101 -0.38 0.17 -0.561 c 0.08 -0.18 0.171 -0.359 0.28 -0.52 c 0.11 -0.16 0.23 -0.32 0.37 -0.46 c 0.7 -0.69 1.73 -1.01 2.71 -0.82 c 0.19 0.04 0.38 0.101 0.561 0.17 c 0.18 0.08 0.359 0.17 0.52 0.28 s 0.32 0.24 0.46 0.37 c 0.13 0.14 0.26 0.3 0.37 0.46 s 0.2 0.34 0.27 0.52 c 0.08 0.181 0.141 0.37 0.171 0.561 c 0.039 0.189 0.06 0.39 0.06 0.59 c 0 0.19 -0.021 0.39 -0.06 0.58 c -0.03 0.189 -0.091 0.38 -0.171 0.56 C 77.79 57.66 77.7 57.84 77.59 58 c -0.11 0.17 -0.24 0.319 -0.37 0.46 c -0.14 0.14 -0.3 0.26 -0.46 0.37 c -0.16 0.109 -0.34 0.2 -0.52 0.279 c -0.181 0.07 -0.37 0.131 -0.561 0.171 C 75.49 59.319 75.29 59.34 75.09 59.34 z" style="stroke: none; stroke-width: 1; stroke-dasharray: none; stroke-linecap: butt; stroke-linejoin: miter; stroke-miterlimit: 10; fill: rgb(205,33,50); fill-rule: nonzero; opacity: 1;" transform=" matrix(1 0 0 1 0 0) " stroke-linecap="round" />
	<path d="M 18 59.34 c -0.2 0 -0.39 -0.021 -0.59 -0.06 c -0.19 -0.04 -0.38 -0.101 -0.56 -0.171 c -0.18 -0.079 -0.36 -0.17 -0.52 -0.279 c -0.16 -0.11 -0.32 -0.23 -0.46 -0.37 c -0.13 -0.141 -0.26 -0.29 -0.37 -0.46 c -0.11 -0.16 -0.2 -0.34 -0.27 -0.521 c -0.08 -0.18 -0.14 -0.37 -0.17 -0.56 c -0.04 -0.19 -0.06 -0.39 -0.06 -0.58 c 0 -0.79 0.32 -1.57 0.87 -2.13 c 0.14 -0.13 0.3 -0.26 0.46 -0.37 c 0.16 -0.11 0.34 -0.2 0.52 -0.28 c 0.18 -0.069 0.37 -0.13 0.56 -0.17 c 0.97 -0.189 2.01 0.13 2.71 0.82 c 0.56 0.56 0.88 1.34 0.88 2.13 s -0.32 1.56 -0.88 2.12 C 19.56 59.02 18.79 59.34 18 59.34 z" style="stroke: none; stroke-width: 1; stroke-dasharray: none; stroke-linecap: butt; stroke-linejoin: miter; stroke-miterlimit: 10; fill: rgb(205,33,50); fill-rule: nonzero; opacity: 1;" transform=" matrix(1 0 0 1 0 0) " stroke-linecap="round" />
	<path d="M 89.958 52.184 l -1.087 -10.356 c -0.34 -3.235 -2.939 -5.79 -6.18 -6.073 L 63.917 34.11 l -5.919 -6.621 c -1.444 -1.616 -3.516 -2.543 -5.683 -2.543 H 13.346 c -2.135 0 -4.14 1.14 -5.232 2.974 L 0.917 40.003 C 0.317 41.01 0 42.162 0 43.334 v 8.725 c 0 2.701 1.625 5.081 4.14 6.063 l 3.631 1.419 c -0.318 -1.012 -0.49 -2.088 -0.49 -3.204 c 0 -5.909 4.808 -10.717 10.717 -10.717 c 5.91 0 10.717 4.808 10.717 10.717 c 0 1.62 -0.372 3.152 -1.019 4.53 h 37.701 c -0.647 -1.378 -1.019 -2.91 -1.019 -4.53 c 0 -5.909 4.808 -10.717 10.717 -10.717 s 10.717 4.808 10.717 10.717 c 0 1.347 -0.26 2.631 -0.716 3.82 C 88.265 58.923 90.326 55.697 89.958 52.184 z M 13.647 38.459 l 5.264 -10.513 h 6.171 l -3.63 10.513 H 13.647 z M 24.626 38.459 l 3.63 -10.513 h 10.392 l 2.522 10.513 H 24.626 z M 58.512 37.565 c -0.678 0.577 -1.542 0.894 -2.432 0.894 H 44.255 l -2.522 -10.513 h 10.582 c 1.314 0 2.57 0.562 3.446 1.542 l 5.29 5.917 L 58.512 37.565 z" style="stroke: none; stroke-width: 1; stroke-dasharray: none; stroke-linecap: butt; stroke-linejoin: miter; stroke-miterlimit: 10; fill: rgb(205,33,50); fill-rule: nonzero; opacity: 1;" transform=" matrix(1 0 0 1 0 0) " stroke-linecap="round" />
</g>
</svg>